<svg fill="none" height="48" viewBox="0 0 146 48" width="146" xmlns="http://www.w3.org/2000/svg"><path d="m13.2775 22.3182c.8223-3.0682 3.9762-6.2221 7.0445-7.0444l19.1289-5.1264c3.0683-.82224 4.889.9985 4.0668 4.0668l-5.1264 19.129c-.8223 3.0682-3.9762 6.2221-7.0444 7.0444l-19.129 5.1264c-3.06827.8222-4.88902-.9985-4.06675-4.0668z" fill="#9e77ed"/><path d="m5.60885 14.6493c.82226-3.0682 3.97616-6.22213 7.04445-7.04439l19.129-5.12637c3.0682-.82226 4.889.99848 4.0667 4.06675l-5.1263 19.12901c-.8223 3.0682-3.9762 6.2221-7.0445 7.0444l-19.12897 5.1264c-3.06827.8222-4.889016-.9985-4.066751-4.0668z" fill="#6941c6"/><g fill="#101828"><path d="m61.5241 30.2132h6.272v3.696h-11.06v-19.656h4.788z"/><path d="m68.5678 26.0692c0-1.6054.2987-3.0147.896-4.228.616-1.2134 1.4467-2.1467 2.492-2.8 1.0454-.6534 2.212-.98 3.5-.98 1.1014 0 2.0627.224 2.884.672.84.448 1.484 1.036 1.932 1.764v-2.212h4.788v15.624h-4.788v-2.212c-.4666.728-1.12 1.316-1.96 1.764-.8213.448-1.7826.672-2.884.672-1.2693 0-2.4266-.3267-3.472-.98-1.0453-.672-1.876-1.6147-2.492-2.828-.5973-1.232-.896-2.6507-.896-4.256zm11.704.028c0-1.1947-.336-2.1374-1.008-2.828-.6533-.6907-1.456-1.036-2.408-1.036s-1.764.3453-2.436 1.036c-.6533.672-.98 1.6053-.98 2.8 0 1.1946.3267 2.1466.98 2.856.672.6906 1.484 1.036 2.436 1.036s1.7547-.3454 2.408-1.036c.672-.6907 1.008-1.6334 1.008-2.828z"/><path d="m103.924 18.2852-9.8003 23.044h-5.152l3.584-7.952-6.356-15.092h5.348l3.612 9.772 3.584-9.772z"/><path d="m119.823 25.8452c0 .448-.028.9146-.084 1.4h-10.836c.075.9706.383 1.7173.924 2.24.56.504 1.241.756 2.044.756 1.195 0 2.025-.504 2.492-1.512h5.096c-.261 1.0266-.737 1.9506-1.428 2.772-.672.8213-1.521 1.4653-2.548 1.932-1.027.4666-2.175.7-3.444.7-1.531 0-2.893-.3267-4.088-.98-1.195-.6534-2.128-1.5867-2.8-2.8-.672-1.2134-1.008-2.632-1.008-4.256s.327-3.0427.98-4.256c.672-1.2134 1.605-2.1467 2.8-2.8 1.195-.6534 2.567-.98 4.116-.98 1.512 0 2.856.3173 4.032.952 1.176.6346 2.091 1.54 2.744 2.716.672 1.176 1.008 2.548 1.008 4.116zm-4.9-1.26c0-.8214-.28-1.4747-.84-1.96-.56-.4854-1.26-.728-2.1-.728-.803 0-1.484.2333-2.044.7-.541.4666-.877 1.1293-1.008 1.988z"/><path d="m126.577 20.8892c.56-.8587 1.26-1.5307 2.1-2.016.84-.504 1.773-.756 2.8-.756v5.068h-1.316c-1.195 0-2.091.2613-2.688.784-.597.504-.896 1.4-.896 2.688v7.252h-4.788v-15.624h4.788z"/><path d="m139.562 34.1332c-1.363 0-2.576-.2334-3.64-.7-1.064-.4667-1.904-1.1014-2.52-1.904-.616-.8214-.962-1.736-1.036-2.744h4.732c.056.5413.308.98.756 1.316s.998.504 1.652.504c.597 0 1.054-.112 1.372-.336.336-.2427.504-.5507.504-.924 0-.448-.234-.7747-.7-.98-.467-.224-1.223-.4667-2.268-.728-1.12-.2614-2.054-.532-2.8-.812-.747-.2987-1.391-.756-1.932-1.372-.542-.6347-.812-1.484-.812-2.548 0-.896.242-1.708.728-2.436.504-.7467 1.232-1.3347 2.184-1.764.97-.4294 2.118-.644 3.444-.644 1.96 0 3.5.4853 4.62 1.456 1.138.9706 1.792 2.2586 1.96 3.864h-4.424c-.075-.5414-.318-.9707-.728-1.288-.392-.3174-.915-.476-1.568-.476-.56 0-.99.112-1.288.336-.299.2053-.448.4946-.448.868 0 .448.233.784.7 1.008.485.224 1.232.448 2.24.672 1.157.2986 2.1.5973 2.828.896.728.28 1.362.7466 1.904 1.4.56.6346.849 1.4933.868 2.576 0 .9146-.262 1.736-.784 2.464-.504.7093-1.242 1.2693-2.212 1.68-.952.4106-2.063.616-3.332.616z"/></g></svg>